<?xml version="1.0" encoding="UTF-8" standalone="no"?><svg xmlns="http://www.w3.org/2000/svg" xmlns:xlink="http://www.w3.org/1999/xlink" contentScriptType="text/ecmascript" fill="#000000" width="131.2" zoomAndPan="magnify" contentStyleType="text/css" viewBox="0.0 0.0 131.2 110.3" height="110.3" data-name="Layer 1" preserveAspectRatio="xMidYMid meet" version="1"><g id="change1_2"><path fill="#000000" d="M4.53,38.78c-.66,0-1.32,0-1.98,.03-1.24,.04-2.23,1.06-2.22,2.3v7.65c0,.62,.24,1.21,.69,1.65,.43,.42,1,.65,1.6,.65,.02,0,.04,0,.06,0,.62-.02,1.23-.03,1.85-.03,14.51,0,28.44,5.74,38.71,16.02,10.71,10.71,16.5,25.39,15.99,40.56-.02,.62,.22,1.22,.65,1.66,.43,.44,1.02,.69,1.64,.69h7.66s0,0,0,0c1.24,0,2.26-.99,2.3-2.22,.54-18.47-6.54-36.32-19.57-49.35-12.57-12.57-29.61-19.6-47.37-19.6h0Zm.01,24.57c-.75,0-1.5,.02-2.25,.06-1.24,.06-2.22,1.08-2.23,2.32l-.03,7.72c0,.64,.26,1.25,.73,1.68,.43,.4,.99,.62,1.57,.62,.05,0,.11,0,.16,0,.7-.05,1.4-.07,2.1-.07,7.94,0,15.59,3.14,21.23,8.78,6.14,6.14,9.32,14.65,8.71,23.33-.04,.64,.18,1.26,.61,1.73,.43,.47,1.04,.73,1.68,.73h0l7.72-.03c1.24,0,2.26-.99,2.32-2.23,.64-12.03-3.85-23.74-12.35-32.23-7.96-7.97-18.75-12.41-29.98-12.41h0Zm-.45,24.39c-.68,0-1.36,.04-2.04,.11C.88,87.98,0,88.97,0,90.15l.14,17.66c.02,1.29,1.05,2.32,2.34,2.34l17.66,.14s.01,0,.02,0c1.17,0,2.15-.88,2.27-2.05,.62-5.58-1.33-11.13-5.31-15.07-3.46-3.49-8.16-5.42-13.03-5.42h0Z"/></g><g id="change1_1"><path fill="#000000" d="M122.62,110h-46.07v-10h44.69V10H10.54v22.69H.54V8C.54,5.72,1.59,3.54,3.41,2.03,4.99,.72,7.03,0,9.16,0H122.62c2.13,0,4.17,.72,5.75,2.03,1.82,1.51,2.87,3.69,2.87,5.97V102c0,2.28-1.05,4.46-2.87,5.97-1.58,1.31-3.62,2.03-5.75,2.03Z"/></g></svg>