<?xml version="1.0" encoding="UTF-8" standalone="no"?><svg xmlns="http://www.w3.org/2000/svg" xmlns:xlink="http://www.w3.org/1999/xlink" contentScriptType="text/ecmascript" fill="#000000" width="480" zoomAndPan="magnify" contentStyleType="text/css" viewBox="16.0 16.0 480.0 480.0" height="480" preserveAspectRatio="xMidYMid meet" version="1"><g fill="#ffffff" id="change1_1"><path fill="inherit" d="M 456 480 L 56 480 C 42.765625 480 32 469.234375 32 456 L 32 160 L 480 160 L 480 456 C 480 469.234375 469.234375 480 456 480 Z M 56 64 L 104 64 L 104 88 C 104 101.234375 114.765625 112 128 112 C 141.234375 112 152 101.234375 152 88 L 152 64 L 232 64 L 232 88 C 232 101.234375 242.765625 112 256 112 C 269.234375 112 280 101.234375 280 88 L 280 64 L 360 64 L 360 88 C 360 101.234375 370.765625 112 384 112 C 397.234375 112 408 101.234375 408 88 L 408 64 L 456 64 C 469.234375 64 480 74.765625 480 88 L 480 144 L 32 144 L 32 88 C 32 74.765625 42.765625 64 56 64 Z M 120 40 C 120 35.589844 123.589844 32 128 32 C 132.410156 32 136 35.589844 136 40 L 136 88 C 136 92.410156 132.410156 96 128 96 C 123.589844 96 120 92.410156 120 88 Z M 248 40 C 248 35.589844 251.589844 32 256 32 C 260.410156 32 264 35.589844 264 40 L 264 88 C 264 92.410156 260.410156 96 256 96 C 251.589844 96 248 92.410156 248 88 Z M 376 40 C 376 35.589844 379.589844 32 384 32 C 388.410156 32 392 35.589844 392 40 L 392 88 C 392 92.410156 388.410156 96 384 96 C 379.589844 96 376 92.410156 376 88 Z M 456 48 L 408 48 L 408 40 C 408 26.765625 397.234375 16 384 16 C 370.765625 16 360 26.765625 360 40 L 360 48 L 280 48 L 280 40 C 280 26.765625 269.234375 16 256 16 C 242.765625 16 232 26.765625 232 40 L 232 48 L 152 48 L 152 40 C 152 26.765625 141.234375 16 128 16 C 114.765625 16 104 26.765625 104 40 L 104 48 L 56 48 C 33.945312 48 16 65.945312 16 88 L 16 456 C 16 478.054688 33.945312 496 56 496 L 456 496 C 478.054688 496 496 478.054688 496 456 L 496 88 C 496 65.945312 478.054688 48 456 48"/><path fill="inherit" d="M 432 248 L 416 248 L 416 232 L 432 232 Z M 440 216 L 408 216 C 403.582031 216 400 219.582031 400 224 L 400 256 C 400 260.417969 403.582031 264 408 264 L 440 264 C 444.417969 264 448 260.417969 448 256 L 448 224 C 448 219.582031 444.417969 216 440 216"/><path fill="inherit" d="M 272 408 L 256 408 L 256 392 L 272 392 Z M 280 376 L 248 376 C 243.582031 376 240 379.582031 240 384 L 240 416 C 240 420.417969 243.582031 424 248 424 L 280 424 C 284.417969 424 288 420.417969 288 416 L 288 384 C 288 379.582031 284.417969 376 280 376"/><path fill="inherit" d="M 192 248 L 176 248 L 176 232 L 192 232 Z M 200 216 L 168 216 C 163.582031 216 160 219.582031 160 224 L 160 256 C 160 260.417969 163.582031 264 168 264 L 200 264 C 204.417969 264 208 260.417969 208 256 L 208 224 C 208 219.582031 204.417969 216 200 216"/><path fill="inherit" d="M 112 328 L 96 328 L 96 312 L 112 312 Z M 120 296 L 88 296 C 83.582031 296 80 299.582031 80 304 L 80 336 C 80 340.417969 83.582031 344 88 344 L 120 344 C 124.417969 344 128 340.417969 128 336 L 128 304 C 128 299.582031 124.417969 296 120 296"/><path fill="inherit" d="M 192 328 L 176 328 L 176 312 L 192 312 Z M 200 296 L 168 296 C 163.582031 296 160 299.582031 160 304 L 160 336 C 160 340.417969 163.582031 344 168 344 L 200 344 C 204.417969 344 208 340.417969 208 336 L 208 304 C 208 299.582031 204.417969 296 200 296"/><path fill="inherit" d="M 112 408 L 96 408 L 96 392 L 112 392 Z M 120 376 L 88 376 C 83.582031 376 80 379.582031 80 384 L 80 416 C 80 420.417969 83.582031 424 88 424 L 120 424 C 124.417969 424 128 420.417969 128 416 L 128 384 C 128 379.582031 124.417969 376 120 376"/><path fill="inherit" d="M 192 408 L 176 408 L 176 392 L 192 392 Z M 200 376 L 168 376 C 163.582031 376 160 379.582031 160 384 L 160 416 C 160 420.417969 163.582031 424 168 424 L 200 424 C 204.417969 424 208 420.417969 208 416 L 208 384 C 208 379.582031 204.417969 376 200 376"/><path fill="inherit" d="M 330.273438 284.101562 C 328.5 285.917969 327.695312 288.472656 328.105469 290.976562 L 333.007812 321.027344 L 307.871094 307.132812 C 306.664062 306.46875 305.332031 306.136719 304 306.136719 C 302.667969 306.136719 301.335938 306.46875 300.128906 307.132812 L 274.992188 321.027344 L 279.894531 290.976562 C 280.304688 288.472656 279.5 285.917969 277.726562 284.101562 L 256.597656 262.449219 L 285.433594 258.042969 C 288.070312 257.640625 290.332031 255.949219 291.464844 253.535156 L 304 226.828125 L 316.535156 253.535156 C 317.667969 255.949219 319.929688 257.640625 322.566406 258.042969 L 351.402344 262.449219 Z M 369.207031 248.984375 L 329.203125 242.871094 L 311.242188 204.601562 C 309.925781 201.792969 307.101562 200 304 200 C 300.898438 200 298.074219 201.792969 296.757812 204.601562 L 278.796875 242.871094 L 238.792969 248.984375 C 235.828125 249.4375 233.367188 251.507812 232.414062 254.351562 C 231.460938 257.195312 232.179688 260.332031 234.273438 262.480469 L 263.453125 292.386719 L 256.550781 334.710938 C 256.058594 337.734375 257.335938 340.773438 259.839844 342.539062 C 262.34375 344.304688 265.636719 344.484375 268.316406 343 L 304 323.277344 L 339.683594 343 C 340.894531 343.667969 342.226562 344 343.554688 344 C 345.171875 344 346.785156 343.507812 348.160156 342.539062 C 350.664062 340.773438 351.941406 337.734375 351.449219 334.710938 L 344.546875 292.386719 L 373.726562 262.480469 C 375.820312 260.332031 376.539062 257.195312 375.585938 254.351562 C 374.632812 251.507812 372.171875 249.4375 369.207031 248.984375"/><path fill="inherit" d="M 432 328 L 416 328 L 416 312 L 432 312 Z M 440 296 L 408 296 C 403.582031 296 400 299.582031 400 304 L 400 336 C 400 340.417969 403.582031 344 408 344 L 440 344 C 444.417969 344 448 340.417969 448 336 L 448 304 C 448 299.582031 444.417969 296 440 296"/><path fill="inherit" d="M 432 408 L 416 408 L 416 392 L 432 392 Z M 440 376 L 408 376 C 403.582031 376 400 379.582031 400 384 L 400 416 C 400 420.417969 403.582031 424 408 424 L 440 424 C 444.417969 424 448 420.417969 448 416 L 448 384 C 448 379.582031 444.417969 376 440 376"/><path fill="inherit" d="M 352 408 L 336 408 L 336 392 L 352 392 Z M 360 376 L 328 376 C 323.582031 376 320 379.582031 320 384 L 320 416 C 320 420.417969 323.582031 424 328 424 L 360 424 C 364.417969 424 368 420.417969 368 416 L 368 384 C 368 379.582031 364.417969 376 360 376"/></g></svg>