<?xml version="1.0" encoding="UTF-8" standalone="no"?><svg xmlns="http://www.w3.org/2000/svg" xmlns:xlink="http://www.w3.org/1999/xlink" contentScriptType="text/ecmascript" fill="#ffffff" width="3155.4" zoomAndPan="magnify" contentStyleType="text/css" viewBox="422.3 246.7 3155.4 3506.5" height="3506.5" preserveAspectRatio="xMidYMid meet" version="1"><g id="change1_1"><path d="M3370.09,2361.93H2863.9v-974.59c0-146.74-119.38-266.13-266.13-266.13h-903.86c-146.74,0-266.13,119.39-266.13,266.13 v22.88H662.01c-66.34,0-127.97,30.49-173.53,85.84c-42.68,51.86-66.19,120.09-66.19,192.12v728.18 c0,72.03,23.51,140.25,66.19,192.12c45.56,55.36,107.19,85.84,173.53,85.84h765.8c-0.01,0.45-0.03,0.89-0.03,1.34v791.47 c0,146.74,119.38,266.13,266.13,266.13h903.86c146.75,0,266.13-119.38,266.13-266.13v-218.8h506.19 c114.48,0,207.62-93.14,207.62-207.62v-491.17C3577.71,2455.07,3484.57,2361.93,3370.09,2361.93z M584,2529.86 c-24.5-29.77-38-70.08-38-113.5v-728.18c0-43.42,13.49-83.73,38-113.5c21.63-26.28,49.33-40.75,78.01-40.75h926.02 c28.68,0,56.38,14.47,78.01,40.75c24.5,29.77,38,70.08,38,113.5v1057.35l-177.66-159.14c-11.35-10.16-26.04-15.78-41.27-15.78 h-823.1C633.33,2570.61,605.63,2556.14,584,2529.86z M2597.77,3618.3h-903.86c-72.32,0-131.16-58.84-131.16-131.16v-702.08 l161.88,145.01c11.57,10.37,26.33,15.79,41.29,15.79c8.53,0,17.13-1.77,25.22-5.38c22.28-9.96,36.63-32.08,36.63-56.48V1688.18 c0-72.03-23.51-140.26-66.19-192.12c-45.56-55.36-107.19-85.84-173.53-85.84h-25.29v-22.88c0-72.32,58.84-131.17,131.16-131.17 h903.86c72.32,0,131.17,58.84,131.17,131.17v974.59h-48.07c-114.48,0-207.62,93.14-207.62,207.62v875.54 c0,25.22,15.32,47.92,38.71,57.36c7.5,3.03,15.35,4.5,23.14,4.5c16.48,0,32.65-6.59,44.54-18.92l149.31-154.82v153.93 C2728.94,3559.46,2670.1,3618.3,2597.77,3618.3z M3453.99,3060.72c0,46.27-37.64,83.91-83.91,83.91h-604.87 c-16.79,0-32.87,6.83-44.53,18.92l-123.73,128.3v-722.29c0-46.27,37.64-83.91,83.91-83.91h689.22c46.27,0,83.91,37.64,83.91,83.91 V3060.72z"/><path d="M3028.91,2595.29c-30.27-20.1-65.77-30.91-102.94-30.91c-49.84,0-96.71,19.41-131.96,54.66 c-72.76,72.76-72.76,191.15,0,263.91l14.7,14.7l176.43,176.43c12.08,12.08,27.91,18.12,43.74,18.12c15.83,0,31.66-6.04,43.74-18.12 l176.43-176.43c0.01-0.01,0.03-0.03,0.04-0.04l14.65-14.65c35.25-35.25,54.66-82.11,54.66-131.96c0-49.84-19.41-96.71-54.66-131.96 C3200.03,2555.33,3101.32,2547.41,3028.91,2595.29z M2881.5,2795.48c-11.88-11.88-18.42-27.68-18.42-44.48s6.54-32.6,18.42-44.48 c11.88-11.88,27.68-18.42,44.48-18.42c16.8,0,32.59,6.54,44.48,18.42l14.65,14.65c0.01,0.01,0.03,0.03,0.04,0.04 c3.77,3.78,7.92,6.96,12.31,9.55c21.66,12.8,49.45,11.24,69.63-4.65c0.28-0.22,0.57-0.43,0.85-0.66c0.01-0.01,0.03-0.02,0.04-0.04 c1.6-1.31,3.16-2.71,4.65-4.21l14.7-14.7c11.88-11.88,27.68-18.42,44.48-18.42s32.6,6.54,44.48,18.42 c11.88,11.88,18.42,27.68,18.42,44.48s-6.54,32.59-18.43,44.48l-147.38,147.39L2881.5,2795.48z"/><path d="M1566.87,2368.86c0-16.32-3.18-31.91-8.95-46.19c17.1-21.22,27.35-48.18,27.35-77.49c0-18.65-4.15-36.35-11.58-52.23 c14.34-20.2,22.78-44.86,22.78-71.46c0-14.6-2.54-28.62-7.21-41.63c19.4-21.85,31.21-50.6,31.21-82.05 c0-68.21-55.49-123.7-123.7-123.7h-227.29c2.6-48.31,1.79-96.87-2.44-144.99c-1.65-85.47-71.68-154.48-157.54-154.48 c-63.96,0-115.99,52.03-115.99,115.99v32.48c0,41.39-5.06,82.75-15.03,122.93c-9.25,37.25-42.51,63.27-80.89,63.27h0h0H725.35 c-34.16,0-61.86,27.69-61.86,61.86v459.55c0,34.16,27.69,61.86,61.86,61.86H897.6h0h0h545.57 C1511.38,2492.57,1566.87,2437.07,1566.87,2368.86z M835.74,2368.85h-48.53v-335.83h48.53V2368.85z M1461.57,2121.48 c-34.16,0-61.86,27.68-61.86,61.84c0,0,0,0.01,0,0.01c0,0,0,0.01,0,0.01c0,33.5,26.64,60.79,59.89,61.83h-16.43 c-34.16,0-61.86,27.68-61.86,61.84c0,0,0,0.01,0,0.02c0,33.53,26.68,60.83,59.96,61.83H959.46v-345.22 c67.64-21.09,121.3-76.06,139.1-147.79c12.39-49.91,18.67-101.3,18.67-152.73v-23.87c14.95,3.51,26.12,16.95,26.12,32.96 c0,1.86,0.08,3.72,0.25,5.57c5.41,59.84,4.8,120.47-1.81,180.2l-1.24,11.18c-1.94,17.49,3.66,34.97,15.4,48.07 c11.73,13.11,28.49,20.6,46.09,20.6h268.77c-33.25,1.04-59.89,28.31-59.89,61.81c0,0,0,0.01,0,0.01 c0,33.53,26.67,60.83,59.95,61.83H1461.57z"/><circle r="82.75" cx="2145.84" cy="871.67"/><path d="M1783.47,509.3c96.79-96.79,225.48-150.1,362.37-150.1s265.58,53.31,362.37,150.1c10.98,10.98,25.37,16.47,39.76,16.47 c14.39,0,28.78-5.49,39.76-16.47c21.96-21.96,21.96-57.57,0-79.53c-118.04-118.03-274.97-183.04-441.89-183.04 c-166.92,0-323.87,65.01-441.9,183.04c-21.96,21.96-21.96,57.57,0,79.53C1725.91,531.26,1761.51,531.26,1783.47,509.3z"/><path d="M2328.06,768.97c21.96-21.96,21.96-57.57,0-79.53c-48.67-48.67-113.39-75.48-182.22-75.48 c-68.83,0-133.55,26.81-182.22,75.48c-21.96,21.96-21.96,57.57,0,79.53c10.98,10.98,25.37,16.47,39.76,16.47 c14.39,0,28.78-5.49,39.76-16.47c27.43-27.43,63.9-42.54,102.7-42.54s75.27,15.11,102.7,42.54 C2270.5,790.93,2306.1,790.93,2328.06,768.97z"/><path d="M2416.08,657.67c14.39,0,28.78-5.49,39.76-16.47c21.96-21.96,21.96-57.57,0-79.53c-82.81-82.81-192.9-128.41-310-128.41 c-117.11,0-227.2,45.6-310,128.41c-21.96,21.96-21.96,57.57,0,79.53c21.96,21.96,57.57,21.96,79.53,0 c61.56-61.56,143.41-95.47,230.48-95.47s168.91,33.9,230.48,95.47C2387.3,652.17,2401.69,657.67,2416.08,657.67z"/><path d="M2017.76,1499.75h245.87c34.16,0,61.86-27.69,61.86-61.86c0-34.16-27.7-61.86-61.86-61.86h-245.87 c-34.16,0-61.86,27.69-61.86,61.86C1955.9,1472.05,1983.59,1499.75,2017.76,1499.75z"/><circle r="91.46" cx="2137.04" cy="3431.16"/><path d="M1962.73 1719H2112.01V1842.72H1962.73z"/><path d="M2236.34 1719H2575.1400000000003V1842.72H2236.34z"/><path d="M1955.35 1929.41H2575.14V2053.13H1955.35z"/><path d="M1955.35 2139.82H2575.14V2263.54H1955.35z"/><path d="M1956.23 3061.48H2355.76V3185.2H1956.23z"/><path d="M1956.23 2859.52H2355.76V2983.24H1956.23z"/><path d="M1703.17 3061.48H1833.0700000000002V3185.2H1703.17z"/></g></svg>