<?xml version="1.0" encoding="UTF-8" standalone="no"?><svg xmlns="http://www.w3.org/2000/svg" xmlns:xlink="http://www.w3.org/1999/xlink" contentScriptType="text/ecmascript" fill="#000000" width="190.1" zoomAndPan="magnify" contentStyleType="text/css" viewBox="4.9 5.0 190.1 190.0" height="190" preserveAspectRatio="xMidYMid meet" version="1"><g id="change1_1"><path fill="#f4f6fc" d="M62.1,137.9c9.8,9.8,22.4,15,35.2,15.6v41.4c-12.6-0.4-25.1-3.2-36.7-8.5c2.6-3,4.6-6.5,6-10.2 c1.3-3.6,2-7.4,2-11.4v0l0,0c0-5.2-1.2-10.1-3.3-14.4c-0.5-1-1-1.9-1.5-2.8c-0.6-0.9-1.2-1.8-1.8-2.7c-1-1.3-2-2.5-3.1-3.6 c-0.8-0.8-1.5-1.5-2.4-2.1c-0.8-0.7-1.7-1.3-2.6-1.9c-5.3-3.6-11.7-5.7-18.6-5.7c-6.9,0-13.3,2.1-18.6,5.7c-0.9,0.6-1.7,1.2-2.6,1.9 c-0.2,0.1-0.3,0.3-0.5,0.4c-5.3-11.7-8.2-24.2-8.5-36.7h41.4C47.2,115.5,52.4,128.1,62.1,137.9z M35.3,134.3c-7.8,0-15,3-20.4,7.9 c-6.1,5.6-10,13.6-10,22.5C5,181.4,18.6,195,35.3,195c8.9,0,16.9-3.9,22.5-10c4.9-5.4,7.9-12.5,7.9-20.4 C65.7,148,52,134.3,35.3,134.3z"/></g><g id="change2_1"><path fill="#050a30" d="M133.4,176.1c1.4,3.8,3.4,7.2,6,10.2c-11.7,5.3-24.2,8.2-36.7,8.5v-41.4c12.8-0.6,25.4-5.8,35.2-15.6 c9.8-9.8,15-22.4,15.6-35.2h41.4c-0.4,12.6-3.2,25.1-8.5,36.7c-0.5-0.4-1-0.8-1.5-1.2c-0.5-0.4-1-0.8-1.6-1.1 c-0.9-0.6-1.8-1.2-2.7-1.7c-0.9-0.5-1.9-1-2.9-1.4c-0.5-0.2-1-0.4-1.5-0.6c-1.5-0.6-3.1-1-4.7-1.3c-2.2-0.4-4.4-0.7-6.7-0.7 c-6.9,0-13.3,2.1-18.6,5.7c-0.9,0.6-1.7,1.2-2.6,1.9c-0.8,0.7-1.6,1.4-2.4,2.1c-1.1,1.1-2.2,2.3-3.1,3.6c-0.6,0.9-1.2,1.7-1.8,2.7 c-0.6,0.9-1.1,1.9-1.5,2.8c-2.1,4.4-3.3,9.3-3.3,14.4l0,0v0C131.4,168.7,132.1,172.6,133.4,176.1z M185,142.2 c-5.4-4.9-12.5-7.9-20.4-7.9c-16.7,0-30.3,13.6-30.3,30.3c0,7.8,3,15,7.9,20.4c5.6,6.1,13.6,10,22.5,10c16.7,0,30.3-13.6,30.3-30.3 C195,155.8,191.1,147.8,185,142.2z"/></g><g id="change3_1"><path fill="#f4f6fc" d="M137.9,62.1c-9.8-9.8-22.4-15-35.2-15.6V5.1c12.6,0.4,25.1,3.2,36.7,8.5c-5,5.8-8,13.4-8,21.7 c0,18.4,14.9,33.3,33.3,33.3c2.3,0,4.5-0.2,6.7-0.7c1.6-0.3,3.2-0.8,4.7-1.3c0.5-0.2,1-0.4,1.5-0.6c1-0.4,2-0.9,2.9-1.4 c0.9-0.5,1.9-1.1,2.7-1.7c1.1-0.7,2.1-1.5,3.1-2.4c5.3,11.7,8.2,24.2,8.5,36.7h-41.4C152.8,84.5,147.6,71.9,137.9,62.1z M164.7,5 c-8.9,0-16.9,3.9-22.5,10c-4.9,5.4-7.9,12.5-7.9,20.4c0,16.7,13.6,30.3,30.3,30.3c7.8,0,15-3,20.4-7.9c6.1-5.6,10-13.6,10-22.5 C195,18.6,181.4,5,164.7,5z"/></g><g id="change4_1"><path fill="#050a30" d="M60.6,13.6c11.7-5.3,24.2-8.2,36.7-8.5v41.4c-12.8,0.6-25.4,5.8-35.2,15.6c-9.8,9.8-15,22.4-15.6,35.2H5.1 c0.4-12.6,3.2-25.1,8.5-36.7c5.8,5,13.4,8,21.7,8c18.4,0,33.3-14.9,33.3-33.3C68.6,27,65.6,19.5,60.6,13.6z M57.8,15 C52.2,8.9,44.2,5,35.3,5C18.6,5,5,18.6,5,35.3c0,8.9,3.9,16.9,10,22.5c5.4,4.9,12.5,7.9,20.4,7.9C52,65.7,65.7,52,65.7,35.3 C65.7,27.5,62.7,20.4,57.8,15z"/></g></svg>