<?xml version="1.0" encoding="UTF-8"?>
<svg id="Layer_2" xmlns="http://www.w3.org/2000/svg" xmlns:xlink="http://www.w3.org/1999/xlink" version="1.1" viewBox="0 0 1194.9 136.3">
  <!-- Generator: Adobe Illustrator 30.3.0, SVG Export Plug-In . SVG Version: 2.1.3 Build 182)  -->
  <defs>
    <style>
      .st0 {
        fill: url(#linear-gradient1);
      }

      .st1 {
        fill: url(#linear-gradient);
      }

      .st2, .st3 {
        fill: #fff;
      }

      .st3 {
        font-family: Helvetica-Bold, Helvetica;
        font-size: 103.3px;
        font-weight: 700;
        isolation: isolate;
      }
    </style>
    <linearGradient id="linear-gradient" x1="841" y1="62.9" x2="1281.5" y2="110.1" gradientUnits="userSpaceOnUse">
      <stop offset="0" stop-color="#008deb"/>
      <stop offset="1" stop-color="#0050df"/>
    </linearGradient>
    <linearGradient id="linear-gradient1" x1="27.5" y1="65.7" x2="159.7" y2="65.7" gradientTransform="translate(0 135.9) scale(1 -1)" xlink:href="#linear-gradient"/>
  </defs>
  <text class="st3" transform="translate(188.8 109.9)"><tspan x="0" y="0">FocusGroup</tspan></text>
  <g>
    <path class="st1" d="M826.6,94.1c0,2.1.5,3.8,1.4,5.2.9,1.4,2,2.5,3.4,3.3,1.4.8,3,1.4,4.8,1.8,1.8.4,3.6.5,5.5.5s3-.1,4.6-.3c1.6-.2,3.1-.6,4.4-1.2,1.3-.6,2.4-1.4,3.3-2.6.9-1.1,1.3-2.6,1.3-4.3s-.5-3.3-1.6-4.4c-1-1.1-2.4-2-4.1-2.8-1.7-.7-3.7-1.3-5.9-1.8-2.2-.5-4.5-1-6.8-1.5-2.3-.5-4.6-1.1-6.7-1.8-2.2-.7-4.1-1.7-5.9-2.8-1.7-1.2-3.1-2.6-4.2-4.5-1.1-1.8-1.6-4.1-1.6-6.7s.6-5.2,1.9-7.3c1.3-2,2.9-3.7,4.9-4.9,2-1.3,4.2-2.2,6.7-2.8,2.5-.6,5-.9,7.4-.9s6,.3,8.7.8,5.1,1.5,7.2,2.8c2.1,1.3,3.7,3.1,4.9,5.4,1.2,2.3,2,5.1,2.2,8.5h-9.2c-.1-1.8-.6-3.3-1.5-4.5-.8-1.2-1.8-2.2-3-2.9-1.2-.7-2.5-1.2-4-1.6-1.5-.3-3-.5-4.5-.5s-2.8.1-4.2.3c-1.4.2-2.7.6-3.9,1.1-1.2.5-2.1,1.3-2.8,2.2-.7.9-1.1,2.1-1.1,3.5s.6,3,1.7,4c1.1,1,2.6,1.9,4.3,2.6,1.7.7,3.7,1.3,5.9,1.7,2.2.5,4.3,1,6.5,1.5,2.3.5,4.6,1.1,6.8,1.8,2.2.7,4.2,1.7,5.9,2.9,1.7,1.2,3.1,2.7,4.1,4.5,1,1.8,1.6,4.1,1.6,6.7s-.7,6.1-2.1,8.4c-1.4,2.3-3.3,4.1-5.5,5.5-2.3,1.4-4.9,2.4-7.7,2.9-2.9.6-5.7.9-8.5.9s-6.2-.3-9-1c-2.8-.7-5.3-1.8-7.4-3.3-2.2-1.5-3.9-3.4-5.2-5.9-1.3-2.4-2-5.4-2.2-8.9h9.2Z"/>
    <path class="st1" d="M888,55.6h11.2v8.1h-11.2v34.9c0,1.1,0,2,.3,2.6.2.7.5,1.2,1,1.5.5.4,1.2.6,2.1.7.9.1,2.1.2,3.5.2h4.2v8.1h-7.1c-2.4,0-4.4-.2-6.1-.5-1.7-.3-3.1-.9-4.1-1.8-1-.9-1.8-2.1-2.3-3.7-.5-1.6-.8-3.7-.8-6.3v-35.7h-9.6v-8.1h9.6v-16.8h9.2v16.8Z"/>
    <path class="st1" d="M955.9,111.8h-8.7v-8.9h-.2c-2,3.5-4.5,6-7.5,7.7-3.1,1.7-6.6,2.5-10.7,2.5s-6.8-.5-9.2-1.5c-2.5-1-4.5-2.4-6-4.2-1.5-1.8-2.6-4-3.2-6.5-.6-2.5-.9-5.3-.9-8.3v-36.9h9.2v38c0,3.5,1,6.2,3,8.3,2,2,4.8,3,8.4,3s5.3-.4,7.3-1.3c2.1-.9,3.8-2.1,5.2-3.7,1.4-1.6,2.4-3.5,3.1-5.6.7-2.1,1-4.5,1-7v-31.7h9.2v56.1Z"/>
    <path class="st1" d="M1020,111.8h-9.2v-7.6h-.2c-1.5,3.1-3.9,5.4-7.2,6.8s-6.8,2.1-10.8,2.1-8.1-.8-11.3-2.4c-3.2-1.6-5.9-3.7-8-6.5-2.1-2.7-3.7-5.8-4.8-9.4-1.1-3.5-1.6-7.3-1.6-11.3s.5-7.7,1.6-11.2c1-3.5,2.6-6.6,4.8-9.3,2.1-2.7,4.8-4.8,8-6.4,3.2-1.6,7-2.3,11.2-2.3s3,.1,4.7.4c1.7.3,3.3.8,5,1.5,1.7.7,3.2,1.6,4.7,2.7,1.5,1.1,2.7,2.5,3.7,4.2h.2v-28.9h9.2v77.5ZM977.6,91.9c.7,2.5,1.7,4.7,3.1,6.7,1.4,2,3.2,3.5,5.4,4.7,2.2,1.2,4.8,1.7,7.8,1.7s5.8-.6,7.9-1.8c2.2-1.2,3.9-2.8,5.3-4.8,1.4-2,2.4-4.3,3-6.8.6-2.5.9-5.1.9-7.7s-.3-5.4-1-8c-.7-2.6-1.7-4.8-3.1-6.8-1.4-2-3.2-3.5-5.5-4.7-2.2-1.2-5-1.8-8.1-1.8s-5.8.6-8,1.8c-2.1,1.2-3.9,2.9-5.2,4.9-1.3,2-2.2,4.3-2.8,7-.6,2.6-.9,5.3-.9,8s.3,5.2,1,7.7Z"/>
    <path class="st1" d="M1044,45.5h-9.2v-11.3h9.2v11.3ZM1034.7,55.6h9.2v56.1h-9.2v-56.1Z"/>
    <path class="st1" d="M1057,72.2c1.2-3.6,2.9-6.7,5.2-9.3,2.3-2.6,5.2-4.7,8.5-6.2,3.4-1.5,7.3-2.3,11.8-2.3s8.3.8,11.7,2.3c3.4,1.5,6.3,3.6,8.6,6.2,2.3,2.6,4.1,5.8,5.2,9.3,1.2,3.6,1.7,7.4,1.7,11.6s-.6,8-1.7,11.5c-1.2,3.5-2.9,6.6-5.2,9.3-2.3,2.6-5.2,4.7-8.6,6.2-3.4,1.5-7.3,2.3-11.7,2.3s-8.4-.8-11.8-2.3c-3.4-1.5-6.2-3.6-8.5-6.2-2.3-2.6-4.1-5.7-5.2-9.3-1.2-3.5-1.7-7.4-1.7-11.5s.6-8,1.7-11.6ZM1066.4,92.8c.9,2.6,2.2,4.9,3.7,6.6,1.6,1.8,3.5,3.1,5.6,4.1,2.1.9,4.4,1.4,6.8,1.4s4.7-.5,6.8-1.4c2.1-.9,4-2.3,5.6-4.1,1.6-1.8,2.8-4,3.7-6.6.9-2.6,1.4-5.7,1.4-9.1s-.5-6.4-1.4-9.1c-.9-2.6-2.2-4.9-3.7-6.7-1.6-1.8-3.5-3.2-5.6-4.1-2.1-.9-4.4-1.4-6.8-1.4s-4.7.5-6.8,1.4c-2.1.9-4,2.3-5.6,4.1-1.6,1.8-2.8,4-3.7,6.7-.9,2.6-1.4,5.7-1.4,9.1s.5,6.4,1.4,9.1Z"/>
  </g>
  <rect class="st0" x="27.5" y="4.1" width="132.2" height="132.2" rx="31.1" ry="31.1"/>
  <path class="st2" d="M129.5,106c-.4-.1-.4-1.1-1.8-.5-2.7,1.1-2.1-1-4.6-1-1.6,0-1.5,1.7-3.4,1.9-1.8.2-1.5-3.3-6-3.5-2.8-.1-4.4,1.7-4.4,1.7.2-.3,1.3,0,.1,1-1.2.9-2.6.6-3.4-.6-.8-1.1-.3-2.8-.3-2.8-2.1,0-3.4,1-5.8.8-1.9-.1-4-1.2-6.2-2.4-1.7-1-2.9-2.3-3.5-3.1.9.6,2.1.9,3.5.9,2.8,0,5.1-1,6.9-3,1.8-2,2.8-4.4,2.8-7.2s-.9-5.4-2.8-7.3c-1.8-1.9-4.2-2.9-6.9-2.9s-5.7,1-7.7,3.1c-2,2.1-3.1,4.9-3.1,8.5s1.9,9.2,5.7,12.6c2.8,2.6,5.8,4.1,9,4.5-3.6,1.5-7.8,2.4-12.4,2.3-4.8-.2-10.1-2.5-12.8-4.7-3.3-2.7-6.9-7.7-7-14.5-.2-7.9,1.8-12.2,6.5-15.6,3.6-2.7,11.4-4.9,19.2-4.6,15.2.6,22.9-1.7,25.6-5.1,9.2-11.2-13.2-17.3-13-21.2.2-3.9,9.5-2.6,14.7-7.5,7.3-6.9-5.9-23.3-5.9-23.3,0,0,2.5,8.6-2.7,14.5-5.1,5.8-27.6,11.8-2,26.5,3.6,2.1,2.9,4.9,1.2,6.5-2.9,2.9-8.7,1.8-23.2,1.8s-14.3,1.1-18.8,3.6c-6.2,3.6-11.9,10.7-12,22.3,0,11.5,4.5,25.3,23.8,26.8,6.3.5,13.7-1.2,19.4-3.6.2,0,.4-.2.6-.3,2.5,2.7,6.5,2.4,8.1,1.7,4.4-1.9,5.3-4.1,6.9-6.1.8-1.1,2.9.1,2.6.7-.3.5-.5,2.5,2.7,2,2.7-.4,3.1-3.3,4.4-3.3.6,0,1,1.2,2.5,1.2,1.3,0,2.4-1.1,3-.7.6.3,3.2,0,3.2,0,0,0-2,0-2.7-.2h0ZM86.6,89.9c-1.2-4.1,1.5-8.5,6.1-8.5s7.4,4.3,7,7.4c-.4,3.1-1.6,6.1-8.1,6.5,0,0,5.6-1.7,5.6-6.6s-5.9-5.3-7.5-2c-1.5,2.9,1.2,4.6,2.1,4.7.7,0,1.2,0,1.7-.5.8-.7-1.2,0-2.1-.6-.6-.5-.8-1-.8-1.6.2-1.6,2.3-2.2,3.5-1.3.6.4,2.2,2,.8,4.4s-7.2,1.8-8.3-1.8h0Z"/>
</svg>